<?xml version="1.0" encoding="UTF-8" ?>
<svg width="128" height="128" viewBox="0 0 128 128" fill="none" xmlns="http://www.w3.org/2000/svg">
<rect width="128" height="128" fill="black"/>
<path d="M43.7746 83.4003L37.9524 84.6739L23.8747 32L37.0501 30.1246L43.7746 83.4003ZM51.1747 93.8277C51.455 94.8574 51.4223 95.8167 51.0767 96.7056C50.7633 97.5858 50.2818 98.3562 49.6322 99.0169C49.0235 99.7009 48.3272 100.253 47.5431 100.674C46.7678 101.127 46.0745 101.437 45.4632 101.603C44.7875 101.787 43.9846 101.885 43.0545 101.896C42.1654 101.93 41.2851 101.807 40.4137 101.526C39.551 101.277 38.7616 100.852 38.0453 100.252C37.3291 99.6526 36.8308 98.8378 36.5506 97.8081C36.2528 96.7141 36.2562 95.711 36.5609 94.7986C36.8655 93.8863 37.3222 93.088 37.9309 92.404C38.5308 91.6877 39.2184 91.1031 39.9937 90.6502C40.8011 90.1885 41.5427 89.8657 42.2184 89.6818C42.8298 89.5154 43.5844 89.4309 44.4823 89.4285C45.3802 89.426 46.2692 89.5815 47.1494 89.8949C48.053 90.1673 48.8673 90.6196 49.5923 91.2517C50.3495 91.8751 50.877 92.7337 51.1747 93.8277Z" fill="white"/>
<path d="M44 16L56.2857 33.7161L50.5714 32.6372C51.8286 31.1987 53.4857 29.9117 55.5429 28.776C57.2952 27.7918 59.5619 26.9022 62.3429 26.1073C65.1619 25.2744 68.6095 24.858 72.6857 24.858C77.2952 24.858 81.7333 25.3312 86 26.2776C90.2667 27.224 94.019 28.6246 97.2571 30.4795C100.533 32.3344 103.143 34.6435 105.086 37.4069C107.029 40.1325 108 43.2744 108 46.8328C108 49.8612 107.562 52.3975 106.686 54.4416C105.848 56.4858 104.724 58.2082 103.314 59.6088C101.905 61.0095 100.305 62.164 98.5143 63.0726C96.7238 63.9811 94.8952 64.8517 93.0286 65.6845C91.1619 66.4795 89.3333 67.3123 87.5429 68.183C85.7524 69.0158 84.1524 70.0568 82.7429 71.306C81.3333 72.5552 80.1905 74.1073 79.3143 75.9621C78.4762 77.817 78.0571 80.1262 78.0571 82.8896C78.0571 83.4196 78.0762 83.9685 78.1143 84.5363C78.1524 85.1041 78.2095 85.7098 78.2857 86.3533H65.6571C65.619 86.1262 65.581 85.8612 65.5429 85.5584C65.5048 85.2934 65.4667 84.9905 65.4286 84.6498C65.4286 84.3091 65.4286 83.9117 65.4286 83.4574C65.4286 82.3596 65.5619 81.0536 65.8286 79.5394C66.0952 77.9874 66.6667 76.3785 67.5429 74.7129C68.4571 73.0473 69.7333 71.4006 71.3714 69.7729C73.0476 68.1451 75.2762 66.6688 78.0571 65.3438C80.8 64.0568 83.0286 62.6372 84.7429 61.0852C86.4571 59.4953 87.7714 57.8864 88.6857 56.2587C89.6381 54.5931 90.2857 52.9842 90.6286 51.4322C90.9714 49.8423 91.1429 48.3849 91.1429 47.0599C91.1429 44.6372 90.6476 42.5173 89.6571 40.7003C88.7048 38.8454 87.4095 37.3123 85.7714 36.1009C84.1714 34.8517 82.3429 33.9243 80.2857 33.3186C78.2286 32.7129 76.1143 32.4101 73.9429 32.4101C71.1238 32.4101 68.6286 32.7129 66.4571 33.3186C64.2857 33.8864 62.3619 34.7003 60.6857 35.7603C59.0095 36.7823 57.5429 37.9937 56.2857 39.3943C55.0667 40.7571 53.9619 42.2524 52.9714 43.8801C51.981 45.47 51.0667 47.1546 50.2286 48.9338C49.4286 50.6751 48.6286 52.4164 47.8286 54.1577L44 16ZM79.9429 99.1861C79.9429 100.397 79.619 101.438 78.9714 102.309C78.3619 103.18 77.6 103.88 76.6857 104.41C75.7714 104.978 74.819 105.375 73.8286 105.603C72.8381 105.868 71.981 106 71.2571 106C70.4571 106 69.5619 105.868 68.5714 105.603C67.581 105.375 66.6286 104.978 65.7143 104.41C64.8381 103.88 64.0952 103.18 63.4857 102.309C62.8762 101.438 62.5714 100.397 62.5714 99.1861C62.5714 97.8991 62.8762 96.8013 63.4857 95.8927C64.0952 94.9842 64.8381 94.2461 65.7143 93.6782C66.6286 93.0726 67.581 92.6372 68.5714 92.3722C69.5619 92.1073 70.4571 91.9748 71.2571 91.9748C71.981 91.9748 72.8381 92.1073 73.8286 92.3722C74.819 92.6372 75.7714 93.0726 76.6857 93.6782C77.6 94.2461 78.3619 94.9842 78.9714 95.8927C79.619 96.8013 79.9429 97.8991 79.9429 99.1861Z" fill="#1E90FF"/>
</svg>
